<svg width="20" height="20" viewBox="0 0 20 20" fill="none" xmlns="http://www.w3.org/2000/svg">
<g clip-path="url(#clip0_286_4635)">
<path d="M9.16699 3.33333H5.66699C4.26686 3.33333 3.5668 3.33333 3.03202 3.60582C2.56161 3.8455 2.17916 4.22795 1.93948 4.69836C1.66699 5.23314 1.66699 5.9332 1.66699 7.33333V14.3333C1.66699 15.7335 1.66699 16.4335 1.93948 16.9683C2.17916 17.4387 2.56161 17.8212 3.03202 18.0608C3.5668 18.3333 4.26686 18.3333 5.66699 18.3333H12.667C14.0671 18.3333 14.7672 18.3333 15.302 18.0608C15.7724 17.8212 16.1548 17.4387 16.3945 16.9683C16.667 16.4335 16.667 15.7335 16.667 14.3333V10.8333M6.66697 13.3333H8.06242C8.47007 13.3333 8.6739 13.3333 8.86571 13.2873C9.03577 13.2465 9.19835 13.1791 9.34747 13.0877C9.51566 12.9847 9.65979 12.8405 9.94804 12.5523L17.917 4.58333C18.6073 3.89298 18.6073 2.77369 17.917 2.08333C17.2266 1.39298 16.1073 1.39298 15.417 2.08333L7.44802 10.0523C7.15977 10.3405 7.01564 10.4847 6.91257 10.6529C6.82119 10.802 6.75385 10.9646 6.71302 11.1346C6.66697 11.3264 6.66697 11.5303 6.66697 11.9379V13.3333Z" stroke="#8b9090ff" stroke-width="1.6" stroke-linecap="round" stroke-linejoin="round"/>
</g>
<defs>
<clipPath id="clip0_286_4635">
<rect width="20" height="20" fill="white"/>
</clipPath>
</defs>
</svg>
